<svg width="52" height="52" viewBox="0 0 52 52" fill="none" xmlns="http://www.w3.org/2000/svg">
<g clip-path="url(#clip0_47_106)">
<path d="M17.9297 33.547C16.9069 32.856 16.1986 31.8469 15.812 30.5126L18.1863 29.5342C18.4019 30.3553 18.7781 30.9915 19.3153 31.4431C19.849 31.8947 20.499 32.117 21.2585 32.117C22.0351 32.117 22.7023 31.881 23.2597 31.4088C23.8172 30.9366 24.0979 30.3345 24.0979 29.606C24.0979 28.8603 23.8036 28.2511 23.2153 27.7792C22.6269 27.3073 21.888 27.071 21.0053 27.071H19.6335V24.7208H20.8649C21.6243 24.7208 22.2642 24.5157 22.7842 24.1051C23.3042 23.6946 23.5642 23.1335 23.5642 22.4185C23.5642 21.7823 23.3315 21.2758 22.8663 20.8962C22.4012 20.5166 21.8126 20.325 21.0976 20.325C20.3997 20.325 19.8454 20.5099 19.4349 20.8827C19.0243 21.2555 18.7266 21.7139 18.5386 22.2545L16.1885 21.2761C16.4997 20.3934 17.0712 19.6134 17.9092 18.9395C18.7474 18.2655 19.8181 17.9268 21.1181 17.9268C22.0793 17.9268 22.9449 18.1116 23.7113 18.4845C24.4776 18.8573 25.0797 19.3739 25.5142 20.0307C25.9486 20.6908 26.1642 21.43 26.1642 22.2508C26.1642 23.0891 25.9624 23.797 25.5586 24.3787C25.1549 24.9603 24.6588 25.4049 24.0704 25.7164V25.8565C24.847 26.1815 25.4798 26.6776 25.9793 27.3447C26.4754 28.0119 26.725 28.8091 26.725 29.7396C26.725 30.6701 26.4889 31.5014 26.0168 32.2301C25.5446 32.9589 24.8912 33.5335 24.0634 33.9508C23.2322 34.3681 22.2982 34.5803 21.2616 34.5803C20.0609 34.5837 18.9526 34.2381 17.9297 33.547Z" fill="white"/>
<path d="M32.5001 21.7653L29.9069 23.6503L28.6035 21.673L33.2801 18.2998H35.0728V34.211H32.5001V21.7653Z" fill="white"/>
<path d="M39.6845 51.9997L52.0002 39.684L45.8424 36.9473L39.6845 39.684L36.9478 45.8419L39.6845 51.9997Z" fill="#EA4335"/>
<path d="M9.5791 45.8424L12.3159 52.0002H39.6842V39.6846H12.3159L9.5791 45.8424Z" fill="#34A853"/>
<path d="M4.10514 0C1.83716 0 0 1.83716 0 4.10514V39.6841L6.15784 42.4208L12.3157 39.6841V12.3157H39.6841L42.4208 6.15784L39.6843 0H4.10514Z" fill="#4285F4"/>
<path d="M0 39.6846V47.8951C0 50.1633 1.83716 52.0002 4.10514 52.0002H12.3157V39.6846H0Z" fill="#188038"/>
<path d="M39.6843 12.3159V39.6842H52V12.3159L45.8422 9.5791L39.6843 12.3159Z" fill="#FBBC04"/>
<path d="M52 12.3157V4.10514C52 1.8369 50.1628 0 47.8949 0H39.6843V12.3157H52Z" fill="#1967D2"/>
</g>
<defs>
<clipPath id="clip0_47_106">
<rect width="52" height="52" fill="white"/>
</clipPath>
</defs>
</svg>
