<svg width="14" height="14" viewBox="0 0 14 14" fill="none" xmlns="http://www.w3.org/2000/svg">
<g clip-path="url(#clip0_47_169)">
<path d="M3.25899 4.50391H0.448463C0.323727 4.50391 0.222656 4.60502 0.222656 4.72971V13.7587C0.222656 13.8835 0.323727 13.9845 0.448463 13.9845H3.25899C3.38372 13.9845 3.48479 13.8835 3.48479 13.7587V4.72971C3.48479 4.60502 3.38372 4.50391 3.25899 4.50391Z" fill="white"/>
<path d="M1.85459 0.015625C0.831961 0.015625 0 0.846683 0 1.86819C0 2.89014 0.831961 3.72152 1.85459 3.72152C2.87641 3.72152 3.7077 2.8901 3.7077 1.86819C3.70774 0.846683 2.87641 0.015625 1.85459 0.015625Z" fill="white"/>
<path d="M10.4075 4.2793C9.27867 4.2793 8.44422 4.76455 7.9381 5.31593V4.72951C7.9381 4.60482 7.83703 4.5037 7.7123 4.5037H5.02073C4.89599 4.5037 4.79492 4.60482 4.79492 4.72951V13.7585C4.79492 13.8833 4.89599 13.9843 5.02073 13.9843H7.82511C7.94984 13.9843 8.05092 13.8833 8.05092 13.7585V9.29125C8.05092 7.78589 8.45981 7.19943 9.50917 7.19943C10.652 7.19943 10.7428 8.13959 10.7428 9.3687V13.7586C10.7428 13.8833 10.8439 13.9844 10.9687 13.9844H13.7741C13.8988 13.9844 13.9999 13.8833 13.9999 13.7586V8.80599C13.9999 6.56757 13.5731 4.2793 10.4075 4.2793Z" fill="white"/>
</g>
<defs>
<clipPath id="clip0_47_169">
<rect width="14" height="14" fill="white"/>
</clipPath>
</defs>
</svg>
