<svg width="49" height="49" viewBox="0 0 49 49" fill="none" xmlns="http://www.w3.org/2000/svg">
<path d="M0.387359 44.2718C-0.690656 39.0902 0.651489 34.3671 2.32568 29.7733C5.08105 22.2129 10.4302 16.6264 17.1108 12.2082C20.6501 9.86748 24.4228 7.89045 28.4665 6.54322C30.595 5.83408 32.178 4.78871 33.0008 2.70519C33.2008 2.19867 33.5299 1.72701 33.8683 1.29057C34.3845 0.624696 34.857 -0.378532 35.9297 0.14677C36.7645 0.555567 36.6658 1.44121 36.4478 2.2528C36.3101 2.76513 35.9883 3.28242 36.393 3.9058C38.196 4.36678 39.9791 3.52253 41.8049 3.58925C43.9736 3.6685 46.4766 3.46497 47.6509 5.56452C48.8283 7.66953 47.4677 9.69967 46.1634 11.4353C42.8388 15.8594 38.6143 19.357 34.0722 22.5153C33.3791 22.9972 32.5218 23.302 31.9915 24.2309C34.3971 24.7757 36.7214 25.2811 39.0342 25.8327C40.8398 26.2633 42.5531 26.9545 44.1427 27.8941C47.0103 29.5891 47.7445 31.4902 46.9255 34.909C47.1611 35.5401 47.8778 35.3781 48.309 35.6967C49.3614 36.4743 49.1517 37.4926 48.0855 37.581C41.6427 38.1152 37.5008 43.2405 31.7947 45.2452C27.643 46.7039 23.6726 48.6496 19.1716 48.9665C16.1061 49.1824 13.7343 48.3477 13.4037 46.6539C12.873 43.9362 14.994 42.9217 16.9154 41.9274C22.76 38.9029 29.1743 37.7913 35.5897 36.7069C36.9343 36.4796 38.2819 36.268 39.6308 36.0666C41.6192 35.7699 42.9006 34.6093 43.1841 32.7279C43.4656 30.8593 41.8302 30.2038 40.4555 29.5642C37.1167 28.0107 33.4951 27.8119 29.8912 27.5599C28.7722 27.4816 27.6418 27.4794 26.5374 27.3115C25.7543 27.1925 24.9039 26.9304 24.7 26.0123C24.494 25.0849 25.1767 24.5472 25.8463 24.1099C27.4506 23.0621 29.1481 22.1441 30.7033 21.0328C34.9866 17.9719 39.3528 14.9885 42.652 10.8198C43.3822 9.8972 44.3797 8.87807 43.8145 7.65721C43.2099 6.35125 41.7409 6.66702 40.5757 6.71634C38.5671 6.80134 36.6147 7.26755 34.6692 7.76256C33.1571 8.14727 32.5676 9.33654 31.8851 10.5074C26.2599 20.157 20.4254 29.6769 13.4094 38.4385C11.477 40.8517 9.59267 43.3447 7.09226 45.2316C4.29808 47.3402 2.01628 47.0107 0.387359 44.2718ZM4.26147 37.8652C4.05572 39.2883 3.54996 40.7368 4.51127 42.1082C8.55237 40.1571 26.6332 15.4876 27.9266 10.2643C17.8855 13.5189 5.95188 24.2214 4.26147 37.8652ZM28.4529 43.2148C30.7917 42.0598 33.1306 40.9047 35.9506 39.512C29.477 39.6131 19.029 43.2437 17.1731 46.1007C21.2366 46.1093 24.6889 44.7841 28.4529 43.2148Z" fill="#11CB66"/>
</svg>
