<svg width="484" height="473" viewBox="0 0 484 473" fill="none" xmlns="http://www.w3.org/2000/svg">
<path fill-rule="evenodd" clip-rule="evenodd" d="M372 34C372 15.2223 356.778 0 338 0H139C120.222 0 105 15.2223 105 34V114C105 128.912 92.9117 141 78 141H34C15.2223 141 0 156.222 0 175V446C0 460.912 12.0883 473 27 473H420C434.912 473 447 460.912 447 446V207C447 188.222 431.778 173 413 173H399C384.088 173 372 160.912 372 146V34Z" fill="#012C2B"/>
<rect x="191" y="272" width="293" height="44" rx="8" fill="white"/>
<path d="M243.096 288.848V290.032H240.056V300H238.6V290.032H235.544V288.848H243.096ZM249.24 291.072C249.902 291.072 250.499 291.216 251.032 291.504C251.566 291.781 251.982 292.203 252.28 292.768C252.59 293.333 252.744 294.021 252.744 294.832V300H251.304V295.04C251.304 294.165 251.086 293.499 250.648 293.04C250.211 292.571 249.614 292.336 248.856 292.336C248.088 292.336 247.475 292.576 247.016 293.056C246.568 293.536 246.344 294.235 246.344 295.152V300H244.888V288.16H246.344V292.48C246.632 292.032 247.027 291.685 247.528 291.44C248.04 291.195 248.611 291.072 249.24 291.072ZM263.123 295.28C263.123 295.557 263.107 295.851 263.075 296.16H256.067C256.12 297.024 256.413 297.701 256.947 298.192C257.491 298.672 258.147 298.912 258.915 298.912C259.544 298.912 260.067 298.768 260.483 298.48C260.909 298.181 261.208 297.787 261.379 297.296H262.947C262.712 298.139 262.243 298.827 261.539 299.36C260.835 299.883 259.96 300.144 258.915 300.144C258.083 300.144 257.336 299.957 256.675 299.584C256.024 299.211 255.512 298.683 255.139 298C254.765 297.307 254.579 296.507 254.579 295.6C254.579 294.693 254.76 293.899 255.123 293.216C255.485 292.533 255.992 292.011 256.643 291.648C257.304 291.275 258.061 291.088 258.915 291.088C259.747 291.088 260.483 291.269 261.123 291.632C261.763 291.995 262.253 292.496 262.595 293.136C262.947 293.765 263.123 294.48 263.123 295.28ZM261.619 294.976C261.619 294.421 261.496 293.947 261.251 293.552C261.005 293.147 260.669 292.843 260.243 292.64C259.827 292.427 259.363 292.32 258.851 292.32C258.115 292.32 257.485 292.555 256.963 293.024C256.451 293.493 256.157 294.144 256.083 294.976H261.619ZM272.878 292.432H271.038V300H269.582V292.432H268.446V291.232H269.582V290.608C269.582 289.627 269.833 288.912 270.334 288.464C270.846 288.005 271.662 287.776 272.782 287.776V288.992C272.142 288.992 271.689 289.12 271.422 289.376C271.166 289.621 271.038 290.032 271.038 290.608V291.232H272.878V292.432ZM276.032 292.656C276.288 292.155 276.65 291.765 277.12 291.488C277.6 291.211 278.181 291.072 278.864 291.072V292.576H278.48C276.848 292.576 276.032 293.461 276.032 295.232V300H274.576V291.232H276.032V292.656ZM288.545 295.28C288.545 295.557 288.529 295.851 288.497 296.16H281.489C281.542 297.024 281.835 297.701 282.369 298.192C282.913 298.672 283.569 298.912 284.337 298.912C284.966 298.912 285.489 298.768 285.905 298.48C286.331 298.181 286.63 297.787 286.801 297.296H288.369C288.134 298.139 287.665 298.827 286.961 299.36C286.257 299.883 285.382 300.144 284.337 300.144C283.505 300.144 282.758 299.957 282.097 299.584C281.446 299.211 280.934 298.683 280.561 298C280.187 297.307 280.001 296.507 280.001 295.6C280.001 294.693 280.182 293.899 280.545 293.216C280.907 292.533 281.414 292.011 282.065 291.648C282.726 291.275 283.483 291.088 284.337 291.088C285.169 291.088 285.905 291.269 286.545 291.632C287.185 291.995 287.675 292.496 288.017 293.136C288.369 293.765 288.545 294.48 288.545 295.28ZM287.041 294.976C287.041 294.421 286.918 293.947 286.673 293.552C286.427 293.147 286.091 292.843 285.665 292.64C285.249 292.427 284.785 292.32 284.273 292.32C283.537 292.32 282.907 292.555 282.385 293.024C281.873 293.493 281.579 294.144 281.505 294.976H287.041ZM298.466 295.28C298.466 295.557 298.45 295.851 298.418 296.16H291.41C291.464 297.024 291.757 297.701 292.29 298.192C292.834 298.672 293.49 298.912 294.258 298.912C294.888 298.912 295.41 298.768 295.826 298.48C296.253 298.181 296.552 297.787 296.722 297.296H298.29C298.056 298.139 297.586 298.827 296.882 299.36C296.178 299.883 295.304 300.144 294.258 300.144C293.426 300.144 292.68 299.957 292.018 299.584C291.368 299.211 290.856 298.683 290.482 298C290.109 297.307 289.922 296.507 289.922 295.6C289.922 294.693 290.104 293.899 290.466 293.216C290.829 292.533 291.336 292.011 291.986 291.648C292.648 291.275 293.405 291.088 294.258 291.088C295.09 291.088 295.826 291.269 296.466 291.632C297.106 291.995 297.597 292.496 297.938 293.136C298.29 293.765 298.466 294.48 298.466 295.28ZM296.962 294.976C296.962 294.421 296.84 293.947 296.594 293.552C296.349 293.147 296.013 292.843 295.586 292.64C295.17 292.427 294.706 292.32 294.194 292.32C293.458 292.32 292.829 292.555 292.306 293.024C291.794 293.493 291.501 294.144 291.426 294.976H296.962ZM301.844 288.16V300H300.388V288.16H301.844ZM303.782 295.584C303.782 294.688 303.963 293.904 304.326 293.232C304.688 292.549 305.184 292.021 305.814 291.648C306.454 291.275 307.163 291.088 307.942 291.088C308.71 291.088 309.376 291.253 309.942 291.584C310.507 291.915 310.928 292.331 311.206 292.832V291.232H312.678V300H311.206V298.368C310.918 298.88 310.486 299.307 309.91 299.648C309.344 299.979 308.683 300.144 307.926 300.144C307.147 300.144 306.443 299.952 305.814 299.568C305.184 299.184 304.688 298.645 304.326 297.952C303.963 297.259 303.782 296.469 303.782 295.584ZM311.206 295.6C311.206 294.939 311.072 294.363 310.806 293.872C310.539 293.381 310.176 293.008 309.718 292.752C309.27 292.485 308.774 292.352 308.23 292.352C307.686 292.352 307.19 292.48 306.742 292.736C306.294 292.992 305.936 293.365 305.67 293.856C305.403 294.347 305.27 294.923 305.27 295.584C305.27 296.256 305.403 296.843 305.67 297.344C305.936 297.835 306.294 298.213 306.742 298.48C307.19 298.736 307.686 298.864 308.23 298.864C308.774 298.864 309.27 298.736 309.718 298.48C310.176 298.213 310.539 297.835 310.806 297.344C311.072 296.843 311.206 296.261 311.206 295.6ZM319.41 291.072C320.477 291.072 321.341 291.397 322.002 292.048C322.664 292.688 322.994 293.616 322.994 294.832V300H321.554V295.04C321.554 294.165 321.336 293.499 320.898 293.04C320.461 292.571 319.864 292.336 319.106 292.336C318.338 292.336 317.725 292.576 317.266 293.056C316.818 293.536 316.594 294.235 316.594 295.152V300H315.138V291.232H316.594V292.48C316.882 292.032 317.272 291.685 317.762 291.44C318.264 291.195 318.813 291.072 319.41 291.072ZM324.829 295.6C324.829 294.693 325.01 293.904 325.373 293.232C325.735 292.549 326.237 292.021 326.877 291.648C327.527 291.275 328.269 291.088 329.101 291.088C330.178 291.088 331.063 291.349 331.757 291.872C332.461 292.395 332.925 293.12 333.149 294.048H331.581C331.431 293.515 331.138 293.093 330.701 292.784C330.274 292.475 329.741 292.32 329.101 292.32C328.269 292.32 327.597 292.608 327.085 293.184C326.573 293.749 326.317 294.555 326.317 295.6C326.317 296.656 326.573 297.472 327.085 298.048C327.597 298.624 328.269 298.912 329.101 298.912C329.741 298.912 330.274 298.763 330.701 298.464C331.127 298.165 331.421 297.739 331.581 297.184H333.149C332.914 298.08 332.445 298.8 331.741 299.344C331.037 299.877 330.157 300.144 329.101 300.144C328.269 300.144 327.527 299.957 326.877 299.584C326.237 299.211 325.735 298.683 325.373 298C325.01 297.317 324.829 296.517 324.829 295.6ZM343.091 295.28C343.091 295.557 343.075 295.851 343.043 296.16H336.035C336.089 297.024 336.382 297.701 336.915 298.192C337.459 298.672 338.115 298.912 338.883 298.912C339.513 298.912 340.035 298.768 340.451 298.48C340.878 298.181 341.177 297.787 341.347 297.296H342.915C342.681 298.139 342.211 298.827 341.507 299.36C340.803 299.883 339.929 300.144 338.883 300.144C338.051 300.144 337.305 299.957 336.643 299.584C335.993 299.211 335.481 298.683 335.107 298C334.734 297.307 334.547 296.507 334.547 295.6C334.547 294.693 334.729 293.899 335.091 293.216C335.454 292.533 335.961 292.011 336.611 291.648C337.273 291.275 338.03 291.088 338.883 291.088C339.715 291.088 340.451 291.269 341.091 291.632C341.731 291.995 342.222 292.496 342.563 293.136C342.915 293.765 343.091 294.48 343.091 295.28ZM341.587 294.976C341.587 294.421 341.465 293.947 341.219 293.552C340.974 293.147 340.638 292.843 340.211 292.64C339.795 292.427 339.331 292.32 338.819 292.32C338.083 292.32 337.454 292.555 336.931 293.024C336.419 293.493 336.126 294.144 336.051 294.976H341.587ZM346.469 292.656C346.725 292.155 347.088 291.765 347.557 291.488C348.037 291.211 348.619 291.072 349.301 291.072V292.576H348.917C347.285 292.576 346.469 293.461 346.469 295.232V300H345.013V291.232H346.469V292.656ZM362.8 291.232L357.52 304.128H356.016L357.744 299.904L354.208 291.232H355.824L358.576 298.336L361.296 291.232H362.8ZM368.087 300.144C367.266 300.144 366.519 299.957 365.847 299.584C365.186 299.211 364.663 298.683 364.279 298C363.906 297.307 363.719 296.507 363.719 295.6C363.719 294.704 363.911 293.915 364.295 293.232C364.69 292.539 365.223 292.011 365.895 291.648C366.567 291.275 367.319 291.088 368.151 291.088C368.983 291.088 369.735 291.275 370.407 291.648C371.079 292.011 371.607 292.533 371.991 293.216C372.386 293.899 372.583 294.693 372.583 295.6C372.583 296.507 372.381 297.307 371.975 298C371.581 298.683 371.042 299.211 370.359 299.584C369.677 299.957 368.919 300.144 368.087 300.144ZM368.087 298.864C368.61 298.864 369.101 298.741 369.559 298.496C370.018 298.251 370.386 297.883 370.663 297.392C370.951 296.901 371.095 296.304 371.095 295.6C371.095 294.896 370.957 294.299 370.679 293.808C370.402 293.317 370.039 292.955 369.591 292.72C369.143 292.475 368.658 292.352 368.135 292.352C367.602 292.352 367.111 292.475 366.663 292.72C366.226 292.955 365.874 293.317 365.607 293.808C365.341 294.299 365.207 294.896 365.207 295.6C365.207 296.315 365.335 296.917 365.591 297.408C365.858 297.899 366.21 298.267 366.647 298.512C367.085 298.747 367.565 298.864 368.087 298.864ZM382.274 291.232V300H380.818V298.704C380.54 299.152 380.151 299.504 379.65 299.76C379.159 300.005 378.615 300.128 378.018 300.128C377.335 300.128 376.722 299.989 376.178 299.712C375.634 299.424 375.202 298.997 374.882 298.432C374.572 297.867 374.418 297.179 374.418 296.368V291.232H375.858V296.176C375.858 297.04 376.076 297.707 376.514 298.176C376.951 298.635 377.548 298.864 378.306 298.864C379.084 298.864 379.698 298.624 380.146 298.144C380.594 297.664 380.818 296.965 380.818 296.048V291.232H382.274ZM393.27 291.072C394.336 291.072 395.2 291.397 395.862 292.048C396.523 292.688 396.854 293.616 396.854 294.832V300H395.414V295.04C395.414 294.165 395.195 293.499 394.758 293.04C394.32 292.571 393.723 292.336 392.966 292.336C392.198 292.336 391.584 292.576 391.126 293.056C390.678 293.536 390.454 294.235 390.454 295.152V300H388.998V291.232H390.454V292.48C390.742 292.032 391.131 291.685 391.622 291.44C392.123 291.195 392.672 291.072 393.27 291.072ZM407.232 295.28C407.232 295.557 407.216 295.851 407.184 296.16H400.176C400.229 297.024 400.523 297.701 401.056 298.192C401.6 298.672 402.256 298.912 403.024 298.912C403.653 298.912 404.176 298.768 404.592 298.48C405.019 298.181 405.317 297.787 405.488 297.296H407.056C406.821 298.139 406.352 298.827 405.648 299.36C404.944 299.883 404.069 300.144 403.024 300.144C402.192 300.144 401.445 299.957 400.784 299.584C400.133 299.211 399.621 298.683 399.248 298C398.875 297.307 398.688 296.507 398.688 295.6C398.688 294.693 398.869 293.899 399.232 293.216C399.595 292.533 400.101 292.011 400.752 291.648C401.413 291.275 402.171 291.088 403.024 291.088C403.856 291.088 404.592 291.269 405.232 291.632C405.872 291.995 406.363 292.496 406.704 293.136C407.056 293.765 407.232 294.48 407.232 295.28ZM405.728 294.976C405.728 294.421 405.605 293.947 405.36 293.552C405.115 293.147 404.779 292.843 404.352 292.64C403.936 292.427 403.472 292.32 402.96 292.32C402.224 292.32 401.595 292.555 401.072 293.024C400.56 293.493 400.267 294.144 400.192 294.976H405.728ZM417.154 295.28C417.154 295.557 417.138 295.851 417.106 296.16H410.098C410.151 297.024 410.445 297.701 410.978 298.192C411.522 298.672 412.178 298.912 412.946 298.912C413.575 298.912 414.098 298.768 414.514 298.48C414.941 298.181 415.239 297.787 415.41 297.296H416.978C416.743 298.139 416.274 298.827 415.57 299.36C414.866 299.883 413.991 300.144 412.946 300.144C412.114 300.144 411.367 299.957 410.706 299.584C410.055 299.211 409.543 298.683 409.17 298C408.797 297.307 408.61 296.507 408.61 295.6C408.61 294.693 408.791 293.899 409.154 293.216C409.517 292.533 410.023 292.011 410.674 291.648C411.335 291.275 412.093 291.088 412.946 291.088C413.778 291.088 414.514 291.269 415.154 291.632C415.794 291.995 416.285 292.496 416.626 293.136C416.978 293.765 417.154 294.48 417.154 295.28ZM415.65 294.976C415.65 294.421 415.527 293.947 415.282 293.552C415.037 293.147 414.701 292.843 414.274 292.64C413.858 292.427 413.394 292.32 412.882 292.32C412.146 292.32 411.517 292.555 410.994 293.024C410.482 293.493 410.189 294.144 410.114 294.976H415.65ZM418.532 295.584C418.532 294.688 418.713 293.904 419.076 293.232C419.438 292.549 419.934 292.021 420.564 291.648C421.204 291.275 421.918 291.088 422.708 291.088C423.39 291.088 424.025 291.248 424.612 291.568C425.198 291.877 425.646 292.288 425.956 292.8V288.16H427.428V300H425.956V298.352C425.668 298.875 425.241 299.307 424.676 299.648C424.11 299.979 423.449 300.144 422.692 300.144C421.913 300.144 421.204 299.952 420.564 299.568C419.934 299.184 419.438 298.645 419.076 297.952C418.713 297.259 418.532 296.469 418.532 295.584ZM425.956 295.6C425.956 294.939 425.822 294.363 425.556 293.872C425.289 293.381 424.926 293.008 424.468 292.752C424.02 292.485 423.524 292.352 422.98 292.352C422.436 292.352 421.94 292.48 421.492 292.736C421.044 292.992 420.686 293.365 420.42 293.856C420.153 294.347 420.02 294.923 420.02 295.584C420.02 296.256 420.153 296.843 420.42 297.344C420.686 297.835 421.044 298.213 421.492 298.48C421.94 298.736 422.436 298.864 422.98 298.864C423.524 298.864 424.02 298.736 424.468 298.48C424.926 298.213 425.289 297.835 425.556 297.344C425.822 296.843 425.956 296.261 425.956 295.6Z" fill="#012C2B"/>
<ellipse cx="211.622" cy="291.622" rx="5.62162" ry="5.62162" stroke="#11CB66" stroke-width="2"/>
<path d="M220.403 302.68C220.778 303.085 221.411 303.109 221.816 302.733C222.22 302.357 222.244 301.724 221.868 301.32L220.403 302.68ZM214.781 296.626L220.403 302.68L221.868 301.32L216.246 295.266L214.781 296.626Z" fill="#11CB66"/>
<path d="M435 284V304" stroke="#012C2B"/>
</svg>
